<?xml version="1.0" encoding="utf-8"?>
<!-- Generator: Adobe Illustrator 19.2.1, SVG Export Plug-In . SVG Version: 6.00 Build 0)  -->
<svg version="1.1" id="Layer_1" xmlns="http://www.w3.org/2000/svg" xmlns:xlink="http://www.w3.org/1999/xlink" x="0px" y="0px"
	 viewBox="0 0 240 240" enable-background="new 0 0 240 240" xml:space="preserve">
<g>
	<path fill-rule="evenodd" clip-rule="evenodd" fill="#BDBDBD" d="M219.2,182.7c-0.9,0-1.9-0.3-2.6-1l-51.4-44
		c-0.5-0.4-0.9-1-1.1-1.6V164c0,6.3-5.1,11.3-11.3,11.3H28.1c-6.3,0-11.3-5.1-11.3-11.3V76c0-6.2,5.1-11.3,11.3-11.3h124.7
		c6.2,0,11.3,5.1,11.3,11.3v27.9c0.2-0.6,0.6-1.2,1.1-1.6l51.4-44c0.7-0.6,1.7-1,2.6-1c0.6,0,1.1,0.1,1.7,0.4
		c1.4,0.7,2.3,2.1,2.3,3.6v117.3c0,1.6-0.9,3-2.3,3.6C220.4,182.6,219.8,182.7,219.2,182.7z"/>
	<path fill="#1D1D1D" d="M219.2,61.3v117.3l-51.4-44v-29.3L219.2,61.3 M152.8,68.7c4.1,0,7.3,3.3,7.3,7.3v88c0,4.1-3.3,7.3-7.3,7.3
		H28.1c-4.1,0-7.3-3.3-7.3-7.3V76c0-4.1,3.3-7.3,7.3-7.3H152.8 M219.2,53.3c-1.9,0-3.7,0.7-5.2,1.9l-45.9,39.3V76
		c0-8.5-6.9-15.3-15.3-15.3H28.1c-8.5,0-15.3,6.9-15.3,15.3v88c0,8.5,6.9,15.3,15.3,15.3h124.7c8.5,0,15.3-6.9,15.3-15.3v-18.6
		l45.9,39.3c1.5,1.3,3.3,1.9,5.2,1.9c1.1,0,2.3-0.2,3.3-0.7c2.8-1.3,4.7-4.1,4.7-7.3V61.3c0-3.1-1.8-6-4.7-7.3
		C221.5,53.6,220.4,53.3,219.2,53.3L219.2,53.3z"/>
</g>
<rect fill-rule="evenodd" clip-rule="evenodd" fill="none" width="240" height="240"/>
<rect fill-rule="evenodd" clip-rule="evenodd" fill="none" width="240" height="240"/>
</svg>
